<svg width="38" height="27" viewBox="0 0 38 27" fill="none" xmlns="http://www.w3.org/2000/svg">
<path fill-rule="evenodd" clip-rule="evenodd" d="M30.2996 10.7829H8.56942C7.48291 10.7829 6.83101 9.93926 6.83101 9.09143C6.83101 8.03429 7.70021 7.4 8.56942 7.4H30.2996C31.3861 7.4 32.038 8.24571 32.038 9.09143C32.038 9.93926 31.1688 10.7829 30.2996 10.7829ZM22.0421 19.24H8.56942C7.48291 19.24 6.83101 18.3964 6.83101 17.5486C6.83101 16.705 7.70021 15.8571 8.56942 15.8571H22.0421C23.1286 15.8571 23.7805 16.705 23.7805 17.5486C23.7805 18.3964 23.1286 19.24 22.0421 19.24ZM28.7785 0H10.3078C5.0926 0 0.963867 4.01714 0.963867 9.09143V24.5257C0.963867 25.5829 1.83307 26.4286 2.91958 26.4286H28.5612C33.7764 26.4286 37.9051 22.4114 37.9051 17.3393V9.09143C37.9051 4.01714 33.7764 0 28.7785 0Z" fill="white"/>
</svg>
